# xmcd
#
# Track frame offsets:
#	150
#	7178
#	23835
#	39985
#	58297
#	77623
#	91704
#	110445
#	130721
#	157492
#	180839
#	198373
#	214379
#	234400
#	254757
#	272693
#
# Disc length: 3880 seconds
#
# Revision: 3
# Processed by: cddbd v1.5.2PL0 Copyright (c) Steve Scherf et al.
# Submitted via: audiograbber 1.83.01
#
DISCID=da0f2610
DTITLE=Diddy-Dirty Money - Last Train To Paris
DYEAR=2010
DGENRE=Hip Hop
TTITLE0=Intro
TTITLE1=Yeah Yeah You Would (Feat. Grace Jones)
TTITLE2=I Hate That You Love Me
TTITLE3=Ass On The Floor (Feat. Swizz Beatz)
TTITLE4=Looking for Love (Feat. Usher)
TTITLE5=Someone To Love Me
TTITLE6=Hate You Now
TTITLE7=Yesterday (Feat. Chris Brown)
TTITLE8=Shades (Feat. Bilal, James Fauntleroy, Justin Timerlake and Lil ' Wayne) 
TTITLE9=Angels (Feat. The Notorious B.I.G. and Rick Ross)
TTITLE10=Your Love (Feat. Trey Songz)
TTITLE11=Strobe Lights (Feat. Lil' Wayne)
TTITLE12=Hello Good Morning (Feat. T.I.)
TTITLE13=I Know (Feat. Chris Brown, Wiz Khalifa and Sevyn) 
TTITLE14=Coming Home (Feat. Skylar Grey)
TTITLE15=Loving You No More (Feat. Drake)
EXTD=
EXTT0=
EXTT1=
EXTT2=
EXTT3=
EXTT4=
EXTT5=
EXTT6=
EXTT7=
EXTT8=
EXTT9=
EXTT10=
EXTT11=
EXTT12=
EXTT13=
EXTT14=
EXTT15=
PLAYORDER=
